<?xml version="1.0" encoding="UTF-8"?>
<svg width="23px" height="26px" viewBox="0 0 23 26" version="1.1" xmlns="http://www.w3.org/2000/svg" xmlns:xlink="http://www.w3.org/1999/xlink">
    <!-- Generator: Sketch 45.1 (43504) - http://www.bohemiancoding.com/sketch -->
    <title>user</title>
    <desc>Created with Sketch.</desc>
    <defs></defs>
    <g id="Symbols" stroke="none" stroke-width="1" fill="none" fill-rule="evenodd" fill-opacity="0.8">
        <g id="Header" transform="translate(-17.000000, -28.000000)" fill-rule="nonzero" fill="#FFFFFF">
            <g id="Group-3">
                <g id="user" transform="translate(17.000000, 28.000000)">
                    <circle id="XMLID_1944_" cx="11.5151029" cy="2.46116343" r="1.97940378"></circle>
                    <circle id="XMLID_1942_" cx="20.5428598" cy="17.976966" r="1.97940378"></circle>
                    <circle id="XMLID_1940_" cx="2.48734602" cy="17.976966" r="1.97940378"></circle>
                    <path d="M22.9987867,7.67149876 C22.9987867,6.31524062 21.899118,5.21557186 20.5428598,5.21557186 C19.8045108,5.21557186 19.1447095,5.54023597 18.694369,6.05865124 L13.8401169,3.24664111 C13.9239012,3.00052477 13.9710298,2.73346236 13.9710298,2.45592691 C13.9710298,1.09966876 12.8713611,0 11.5151029,0 C10.1588448,0 9.05917601,1.09966876 9.05917601,2.45592691 C9.05917601,2.73346236 9.10630468,2.99528825 9.19008896,3.2414046 L4.33583684,6.05341472 C3.8854963,5.54023597 3.22569504,5.21033534 2.48734602,5.21033534 C1.13108787,5.21033534 0.0314191076,6.3100041 0.0314191076,7.66626225 C0.0314191076,8.83924226 0.85878894,9.82370763 1.9584577,10.0645875 L1.96369422,15.5734043 C0.85878894,15.8142841 0.0261825896,16.7987495 0.0261825896,17.9717295 C0.0261825896,19.3279877 1.12585135,20.4276564 2.4821095,20.4276564 C3.20474897,20.4276564 3.85407719,20.1134654 4.30441774,19.6159962 L9.17437941,22.4280063 C9.09583164,22.6688861 9.0539395,22.920239 9.0539395,23.1873014 C9.0539395,24.5435595 10.1536083,25.6432283 11.5098664,25.6432283 C12.8661245,25.6432283 13.9657933,24.5435595 13.9657933,23.1873014 C13.9657933,22.920239 13.9239012,22.6688861 13.8453534,22.4280063 L18.7153151,19.6159962 C19.1656556,20.1134654 19.8149838,20.4276564 20.5376233,20.4276564 C21.8938815,20.4276564 22.9935502,19.3279877 22.9935502,17.9717295 C22.9935502,16.78304 22.1399978,15.782865 21.0141464,15.5629313 L21.0141464,10.0750605 C22.1452343,9.86036326 22.9987867,8.86542485 22.9987867,7.67149876 Z M20.5428598,6.1633816 C21.3754662,6.1633816 22.050977,6.83889241 22.050977,7.67149876 C22.050977,8.50410511 21.3754662,9.17961593 20.5428598,9.17961593 C19.7102535,9.17961593 19.0347427,8.50410511 19.0347427,7.67149876 C19.0347427,6.83889241 19.71549,6.1633816 20.5428598,6.1633816 Z M11.5151029,0.953046263 C12.3477093,0.953046263 13.0232201,1.62855708 13.0232201,2.46116343 C13.0232201,2.7177528 12.9603819,2.95863263 12.8451785,3.17332986 C12.8347054,3.1838029 12.8294689,3.19427594 12.8189959,3.20998549 C12.8137594,3.22045853 12.8085228,3.23093156 12.8032863,3.2414046 C12.5414604,3.67603558 12.0597008,3.96928059 11.5151029,3.96928059 C10.6824966,3.96928059 10.0069858,3.29376978 10.0069858,2.46116343 C10.0069858,1.62855708 10.6824966,0.953046263 11.5151029,0.953046263 Z M0.979228852,7.67149876 C0.979228852,6.83889241 1.65473966,6.1633816 2.48734602,6.1633816 C3.31995237,6.1633816 3.99546318,6.83889241 3.99546318,7.67149876 C3.99546318,8.50410511 3.31995237,9.17961593 2.48734602,9.17961593 C1.65473966,9.17961593 0.979228852,8.50410511 0.979228852,7.67149876 Z M2.48734602,19.4850832 C1.65473966,19.4850832 0.979228852,18.8095724 0.979228852,17.976966 C0.979228852,17.1443597 1.65473966,16.4688489 2.48734602,16.4688489 C3.31995237,16.4688489 3.99546318,17.1443597 3.99546318,17.976966 C3.99022666,18.8095724 3.31471585,19.4850832 2.48734602,19.4850832 Z M11.5151029,24.6954185 C10.6824966,24.6954185 10.0069858,24.0199077 10.0069858,23.1873014 C10.0069858,22.354695 10.6824966,21.6791842 11.5151029,21.6791842 C12.3477093,21.6791842 13.0232201,22.354695 13.0232201,23.1873014 C13.0232201,24.0199077 12.3477093,24.6954185 11.5151029,24.6954185 Z M13.3845398,21.6006364 C12.9341993,21.0717481 12.263925,20.7313745 11.5151029,20.7313745 C10.7662809,20.7313745 10.0960066,21.0665116 9.64566602,21.6006364 L4.79665042,18.8043359 C4.89090774,18.5477465 4.94327292,18.2649745 4.94327292,17.976966 C4.94327292,16.7673304 4.06877443,15.761919 2.91674049,15.5576948 L2.91150397,10.0855335 C4.06353791,9.88654585 4.94327292,8.87589789 4.94327292,7.66626225 C4.94327292,7.3887268 4.89614426,7.12166438 4.81235998,6.87554804 L9.66661209,4.06353791 C10.1169526,4.58195319 10.7819904,4.9066173 11.5203394,4.9066173 C12.2586885,4.9066173 12.9184897,4.58195319 13.3688303,4.06353791 L18.2230824,6.87554804 C18.1392981,7.12166438 18.0921694,7.3887268 18.0921694,7.66626225 C18.0921694,8.85495181 18.9457219,9.85512674 20.0715732,10.0750605 L20.0715732,15.5629313 C18.9457219,15.782865 18.0921694,16.7778034 18.0921694,17.9717295 C18.0921694,18.2649745 18.1445346,18.54251 18.2387919,18.7990994 L13.3845398,21.6006364 Z M22.050977,17.976966 C22.050977,18.8095724 21.3754662,19.4850832 20.5428598,19.4850832 C19.7102535,19.4850832 19.0347427,18.8095724 19.0347427,17.976966 C19.0347427,17.1443597 19.7102535,16.4688489 20.5428598,16.4688489 C21.3754662,16.4688489 22.050977,17.1443597 22.050977,17.976966 Z" id="Shape"></path>
                    <path d="M13.8034613,14.7198519 L13.8034613,13.0075105 C14.0914697,12.7299751 14.2538018,12.3477093 14.2538018,11.9392609 L14.2538018,9.69279468 C14.2538018,8.31559047 13.133187,7.19497563 11.7559827,7.19497563 L11.2742231,7.19497563 C9.89701888,7.19497563 8.77640405,8.31559047 8.77640405,9.69279468 L8.77640405,11.9392609 C8.77640405,12.3477093 8.94397262,12.7299751 9.22674459,13.0075105 L9.22674459,14.7198519 C8.68214672,15.0026239 7.37301724,15.7200268 6.14767205,16.7254383 C5.94344785,16.8930068 5.91726526,17.1914884 6.08483383,17.3957126 C6.2524024,17.5999368 6.55088393,17.6261193 6.75510813,17.4585508 C8.11136627,16.3431725 9.57759129,15.6048234 9.86036326,15.468674 C10.0593509,15.3691801 10.1797909,15.175429 10.1797909,14.9502587 L10.1797909,12.7823403 C10.1797909,12.6252447 10.1012431,12.4733857 9.97033013,12.3896014 C9.81847111,12.2901076 9.72945031,12.122539 9.72945031,11.9392609 L9.72945031,9.69279468 C9.72945031,8.83924226 10.4259072,8.14278538 11.2794596,8.14278538 L11.7612193,8.14278538 C12.6147717,8.14278538 13.3112286,8.83924226 13.3112286,9.69279468 L13.3112286,11.9392609 C13.3112286,12.1173025 13.2222078,12.2848711 13.0703487,12.3896014 C12.9394358,12.4786222 12.860888,12.6252447 12.860888,12.7823403 L12.860888,14.9502587 C12.860888,15.1701924 12.9865645,15.3691801 13.1855521,15.468674 C13.4683241,15.6048234 14.9345491,16.348409 16.2908073,17.4585508 C16.3798281,17.531862 16.4845584,17.5685176 16.5892888,17.5685176 C16.7254383,17.5685176 16.8615877,17.5109159 16.955845,17.3957126 C17.1234136,17.1914884 17.0919945,16.8930068 16.8930068,16.7254383 C15.6571886,15.7200268 14.3480591,14.9973873 13.8034613,14.7198519 Z" id="Shape"></path>
                </g>
            </g>
        </g>
    </g>
</svg>